
      <svg data-logo="logo" xmlns="http://www.w3.org/2000/svg" viewBox="0 0 206.09999084472656 41" width="206.09999084472656" height="41">
        <g id="logogram" transform="
    translate(0, 0.5)
    rotate(0 20 20)
    
  "><path fill="#62A0EA" d="M0 33C0 36.8653 3.13384 39.9987 6.99958 39.9987L14 39.9999C13.2133 39.9999 12.4947 39.5522 12.1486 38.8458L11.0002 36.5006C9.95114 34.359 7.77413 33.0014 5.38922 33.0012L0 33ZM6.27879e-08 22.0075C6.27879e-08 25.8693 3.13386 29 6.99963 29L19 28.9925C18.2133 28.9925 17.4947 28.5453 17.1485 27.8395L16.0002 25.4963C14.9511 23.3566 12.7741 22.0002 10.3892 22L6.27879e-08 22.0075ZM17.417 0C19.8022 0 21.9791 1.35633 23.0283 3.49577L24.1777 5.83863C24.5198 6.53564 25.2245 6.97988 26 6.99056L7 7C3.13401 7 6.27879e-08 3.86978 6.27879e-08 0.00846622L17.417 0ZM13.417 11C15.8022 11 17.9791 12.3563 19.0283 14.4956L20.1777 16.8384C20.5198 17.5353 21.2245 17.9796 22 17.9902L7 18C3.13401 18 6.27879e-08 14.8699 6.27879e-08 11.0088L13.417 11Z"/><path fill="#1C71D8" d="M40 0C40 3.86525 36.8662 6.99866 33.0004 6.99866L26 6.9999C26.7867 6.9999 27.5053 6.55222 27.8514 5.84583L28.9998 3.50057C30.0489 1.35903 32.2259 0.00140065 34.6108 0.0012436L40 0ZM40 11.0076C40 14.8694 36.8661 18 33.0004 18L22 17.9925C22.7868 17.9925 23.5053 17.5453 23.8515 16.8395L24.9998 14.4963C26.0489 12.3567 28.2259 11.0003 30.6108 11.0001L40 11.0076ZM22.583 33C20.1978 33 18.0209 34.3563 16.9717 36.4958L15.8223 38.8386C15.4803 39.5356 14.7755 39.9799 14 39.9906L33 40C36.866 40 40 36.8698 40 33.0085L22.583 33ZM27.583 22C25.1978 22 23.0209 23.3563 21.9717 25.4956L20.8223 27.8384C20.4802 28.5353 19.7755 28.9796 19 28.9902L33 29C36.866 29 40 25.8699 40 22.0088L27.583 22Z"/></g>
        <g id="logotype" transform="translate(46, 6.824999999999999)"><path fill="#62a0ea" d="M34.14 27.35L29.45 27.35L13.95 5.26L13.80 5.26L13.80 20.31Q13.80 22.63 14.07 23.73Q14.33 24.83 15.12 25.18Q15.91 25.53 17.45 25.60L17.45 25.60L17.45 27L7.05 27L7.05 25.60Q8.77 25.53 9.62 25.18Q10.48 24.83 10.78 23.78Q11.07 22.73 11.07 20.56L11.07 20.56L11.07 6.49Q11.07 4.49 10.81 3.44Q10.55 2.39 9.76 1.96Q8.97 1.52 7.40 1.45L7.40 1.45L7.40 0.05L17.16 0.05L31.27 20.28L31.41 20.28L31.41 6.73Q31.41 4.42 31.15 3.32Q30.89 2.22 30.12 1.85Q29.35 1.48 27.77 1.45L27.77 1.45L27.77 0.05L38.17 0.05L38.17 1.45Q36.45 1.48 35.59 1.85Q34.73 2.22 34.44 3.27Q34.14 4.32 34.14 6.49L34.14 6.49L34.14 27.35ZM48.95 3.20L48.95 3.20L48.95 12.09Q51.19 12.09 52.55 11.95Q53.92 11.81 54.67 11.37Q55.42 10.93 55.75 10.08Q56.09 9.22 56.23 7.82L56.23 7.82L57.52 7.82L57.52 18.07L56.23 18.07Q56.02 16.64 55.65 15.80Q55.28 14.96 54.55 14.56Q53.81 14.15 52.48 14.01Q51.15 13.87 48.95 13.87L48.95 13.87L48.95 21.09Q48.95 22.59 49.51 23.46Q50.07 24.34 51.38 24.71Q52.69 25.07 54.93 25.07L54.93 25.07Q57.59 25.07 59.18 24.55Q60.78 24.02 61.65 22.70Q62.53 21.36 63.02 18.98L63.02 18.98L64.42 18.98L63.86 27L40.13 27L40.13 25.60Q41.70 25.53 42.49 25.23Q43.28 24.93 43.54 24.09Q43.80 23.25 43.80 21.61L43.80 21.61L43.80 5.44Q43.80 3.79 43.56 2.97Q43.31 2.15 42.61 1.83Q41.91 1.52 40.51 1.45L40.51 1.45L40.51 0.05L62.63 0.05L62.88 6.91L61.37 6.91Q61.09 4.95 60.36 3.86Q59.62 2.78 58.17 2.34Q56.72 1.90 54.23 1.90L54.23 1.90L50.28 1.90Q49.40 1.90 49.17 2.13Q48.95 2.36 48.95 3.20ZM90.91 2.50L83.11 12.16L91.05 23.11Q91.93 24.30 93.12 24.95Q94.31 25.60 95.71 25.60L95.71 25.60L95.71 27L82.65 27L82.65 25.60Q84.44 25.60 84.91 25.36Q85.38 25.11 85.38 24.69L85.38 24.69Q85.38 24.41 85.22 24.06Q85.07 23.71 84.66 23.11Q84.26 22.52 83.53 21.50L83.53 21.50L79.78 16.18L77.37 19.16Q76.35 20.38 75.42 21.43Q74.50 22.48 73.90 23.27Q73.31 24.06 73.31 24.62L73.31 24.62Q73.31 25.18 74.01 25.39Q74.71 25.60 76.32 25.60L76.32 25.60L76.32 27L65.57 27L65.57 25.60Q66.87 25.60 67.67 25.43Q68.48 25.25 69.11 24.76Q69.74 24.27 70.51 23.36L70.51 23.36L78.17 14.01L70.02 3.44Q69.07 2.22 68.13 1.83Q67.18 1.45 65.99 1.45L65.99 1.45L65.99 0.05L79.15 0.05L79.15 1.45Q77.89 1.45 77.33 1.76Q76.77 2.08 76.77 2.71L76.77 2.71Q76.77 3.62 77.82 5.05L77.82 5.05L81.43 10.02L85.94 4.63Q86.47 4.00 86.69 3.50Q86.92 2.99 86.92 2.53L86.92 2.53Q86.92 2.01 86.41 1.73Q85.91 1.45 84.09 1.45L84.09 1.45L84.09 0.05L94.52 0.05L94.52 1.45Q93.57 1.45 92.89 1.54Q92.21 1.62 91.73 1.85Q91.26 2.08 90.91 2.50L90.91 2.50ZM109.36 27L96.55 27L96.55 25.60Q98.12 25.53 98.91 25.23Q99.70 24.93 99.96 24.09Q100.22 23.25 100.22 21.61L100.22 21.61L100.22 5.44Q100.22 3.79 99.99 2.97Q99.77 2.15 99.07 1.83Q98.37 1.52 96.93 1.45L96.93 1.45L96.93 0.05L109.01 0.05L109.01 1.45Q107.43 1.48 106.66 1.82Q105.89 2.15 105.63 3.02Q105.37 3.90 105.37 5.68L105.37 5.68L105.37 12.12L118.35 12.12L118.35 5.44Q118.35 3.79 118.09 2.97Q117.83 2.15 117.04 1.83Q116.25 1.52 114.68 1.45L114.68 1.45L114.68 0.05L126.79 0.05L126.79 1.45Q125.39 1.48 124.69 1.82Q123.99 2.15 123.74 3.02Q123.50 3.90 123.50 5.68L123.50 5.68L123.50 21.36Q123.50 23.15 123.76 24.04Q124.02 24.93 124.81 25.23Q125.60 25.53 127.17 25.60L127.17 25.60L127.17 27L114.33 27L114.33 25.60Q116.04 25.53 116.90 25.23Q117.76 24.93 118.05 24.09Q118.35 23.25 118.35 21.61L118.35 21.61L118.35 14.29L105.37 14.29L105.37 21.36Q105.37 23.15 105.65 24.04Q105.93 24.93 106.78 25.23Q107.64 25.53 109.36 25.60L109.36 25.60L109.36 27ZM152.72 6.80L152.72 6.80Q152.72 9.71 151.04 11.67Q149.36 13.63 145.69 14.29L145.69 14.29L153.81 23.61Q154.65 24.59 155.80 25.09Q156.96 25.60 158.15 25.60L158.15 25.60L158.15 27L149.85 27L141.17 16.36Q140.61 15.66 140.12 15.27Q139.63 14.89 139.23 14.73Q138.83 14.57 138.44 14.57L138.44 14.57L138.44 21.43Q138.44 23.15 138.79 24.06Q139.14 24.97 140.23 25.29Q141.31 25.60 143.52 25.60L143.52 25.60L143.52 27L129.62 27L129.62 25.60Q131.16 25.60 131.95 25.29Q132.74 24.97 133.02 24.11Q133.30 23.25 133.30 21.61L133.30 21.61L133.30 5.44Q133.30 3.79 133.07 2.97Q132.84 2.15 132.14 1.83Q131.44 1.52 130.01 1.45L130.01 1.45L130.01 0.05L142.12 0.05Q147.16 0.05 149.94 1.83Q152.72 3.62 152.72 6.80ZM138.44 2.60L138.44 2.60L138.44 12.47L140.72 12.47Q144.01 12.47 145.63 11.18Q147.26 9.88 147.26 6.98L147.26 6.98Q147.26 4.74 145.90 3.37Q144.53 2.01 142.12 2.01L142.12 2.01L139.07 2.01Q138.44 2.01 138.44 2.60Z"/></g>
        
      </svg>
    